<svg width="32" height="25" viewBox="0 0 32 25" fill="none" xmlns="http://www.w3.org/2000/svg">
<path d="M30.9378 0H1.06224C0.780545 0.000330152 0.510491 0.112407 0.311343 0.311633C0.112195 0.510859 0.000224203 0.780957 4.2376e-06 1.06265V3.20042C4.2376e-06 3.29891 0.106809 3.41195 0.194082 3.45766L15.8974 12.4272C15.9376 12.4502 15.9832 12.4621 16.0295 12.4617C16.0769 12.4618 16.1234 12.4492 16.1642 12.4251L31.3928 3.46639C31.4784 3.4186 31.7053 3.29226 31.7905 3.23408C31.8936 3.16384 32 3.10026 32 2.97434V1.06223C31.9997 0.780614 31.8876 0.510622 31.6885 0.311486C31.4894 0.11235 31.2194 0.00032996 30.9378 0V0ZM31.8674 6.42369C31.8265 6.40037 31.7802 6.38825 31.7332 6.38854C31.6861 6.38883 31.64 6.40153 31.5994 6.42535L22.9814 11.4959C22.9471 11.5159 22.9177 11.5434 22.8954 11.5763C22.8731 11.6092 22.8586 11.6467 22.8528 11.6861C22.847 11.7254 22.8501 11.7655 22.862 11.8035C22.8738 11.8414 22.894 11.8762 22.9211 11.9052L31.5404 21.1965C31.5651 21.2233 31.5951 21.2447 31.6285 21.2593C31.6619 21.2739 31.698 21.2814 31.7344 21.2812C31.8048 21.2811 31.8723 21.2531 31.9221 21.2033C31.9719 21.1536 31.9999 21.0861 32 21.0157V6.65434C32.0002 6.60762 31.988 6.56169 31.9647 6.52118C31.9415 6.48068 31.9079 6.44705 31.8674 6.42369ZM20.4979 13.1985C20.457 13.154 20.402 13.1248 20.3422 13.1159C20.2824 13.107 20.2213 13.1188 20.1691 13.1495L16.7148 15.1821C16.5124 15.2991 16.2831 15.3614 16.0494 15.3629C15.8156 15.3644 15.5855 15.3051 15.3816 15.1909L12.3416 13.4541C12.2925 13.4262 12.2358 13.4146 12.1797 13.421C12.1236 13.4274 12.071 13.4515 12.0295 13.4899L0.485407 24.1978C0.455143 24.2261 0.431906 24.2611 0.41755 24.2999C0.403193 24.3388 0.398113 24.3805 0.402715 24.4217C0.407316 24.4628 0.421472 24.5024 0.444054 24.5371C0.466636 24.5718 0.49702 24.6008 0.532783 24.6217C0.712316 24.7273 0.885615 24.7776 1.06182 24.7776H30.6319C30.6836 24.7777 30.7343 24.7625 30.7775 24.7341C30.8207 24.7057 30.8546 24.6651 30.875 24.6176C30.8957 24.5703 30.9022 24.5179 30.8934 24.467C30.8847 24.4161 30.8613 24.3689 30.826 24.3312L20.4979 13.1985ZM9.48946 12.2232C9.52003 12.1949 9.54353 12.1598 9.55806 12.1208C9.57258 12.0818 9.57773 12.0399 9.57308 11.9985C9.56843 11.9571 9.55411 11.9174 9.53128 11.8826C9.50845 11.8478 9.47775 11.8188 9.44166 11.798L0.396056 6.63148C0.355687 6.60856 0.310008 6.59664 0.263587 6.59691C0.217166 6.59719 0.17163 6.60964 0.131534 6.63304C0.0914372 6.65643 0.0581851 6.68994 0.035103 6.73022C0.0120209 6.77049 -8.2075e-05 6.81612 4.2376e-06 6.86254V20.4189C-0.000288654 20.4707 0.0146073 20.5214 0.0428481 20.5648C0.071089 20.6082 0.111435 20.6424 0.158893 20.6631C0.20635 20.6838 0.258836 20.6901 0.309853 20.6813C0.360871 20.6724 0.40818 20.6488 0.445926 20.6134L9.48946 12.2232V12.2232Z" fill="#F8F3F7"/>
</svg>
