<svg width="32" height="34" viewBox="0 0 32 34" fill="none" xmlns="http://www.w3.org/2000/svg">
<path d="M15.2547 0.191563C15.0818 0.0657135 14.8732 -0.00141713 14.6594 2.26861e-05C14.4455 0.00146251 14.2378 0.071397 14.0667 0.199563C12.192 1.60623 9.888 2.59423 7.70133 3.27956C5.53294 3.94953 3.30548 4.41074 1.04933 4.6569C1.01602 4.6606 0.982684 4.66416 0.949335 4.66756L0.925335 4.6689H0.920002C0.669117 4.68903 0.435051 4.80303 0.264519 4.98815C0.0939869 5.17326 -0.000469327 5.41587 1.75361e-06 5.66756V14.3329C1.75361e-06 21.1236 4.63467 28.8262 14.36 31.9516C14.5594 32.0158 14.7739 32.0158 14.9733 31.9516C15.3573 31.8276 15.7333 31.6982 16.1 31.5596C16.0333 31.2665 15.9998 30.9668 16 30.6662V23.9996C15.9997 23.0541 16.3343 22.139 16.9445 21.4168C17.5547 20.6945 18.4011 20.2118 19.3333 20.0542V19.9996C19.3332 18.8904 19.6789 17.8089 20.3223 16.9054C20.9657 16.0019 21.8747 15.3215 22.9229 14.9589C23.9711 14.5962 25.1062 14.5694 26.1703 14.8821C27.2345 15.1948 28.1747 15.8315 28.86 16.7036C28.9533 16.0156 29 15.3342 29 14.6662V5.66623C28.9999 5.41585 28.9059 5.1746 28.7365 4.99019C28.5672 4.80577 28.3348 4.6916 28.0853 4.67023H28.0827L28.0693 4.6689L28.0093 4.66223C27.956 4.6569 27.8747 4.6489 27.7667 4.63556C27.5533 4.61156 27.2373 4.57156 26.84 4.51156C25.7628 4.34621 24.6941 4.12996 23.6373 3.86356C21.048 3.21023 17.8547 2.08356 15.2547 0.191563V0.191563ZM20.6667 21.3329V19.9996C20.6667 18.9387 21.0881 17.9213 21.8382 17.1711C22.5884 16.421 23.6058 15.9996 24.6667 15.9996C25.7275 15.9996 26.7449 16.421 27.4951 17.1711C28.2452 17.9213 28.6667 18.9387 28.6667 19.9996V21.3329H29.3333C30.0406 21.3329 30.7189 21.6138 31.219 22.1139C31.719 22.614 32 23.2923 32 23.9996V30.6662C32 31.3735 31.719 32.0517 31.219 32.5518C30.7189 33.0519 30.0406 33.3329 29.3333 33.3329H20C19.2928 33.3329 18.6145 33.0519 18.1144 32.5518C17.6143 32.0517 17.3333 31.3735 17.3333 30.6662V23.9996C17.3333 23.2923 17.6143 22.614 18.1144 22.1139C18.6145 21.6138 19.2928 21.3329 20 21.3329H20.6667ZM22.6667 19.9996V21.3329H26.6667V19.9996C26.6667 19.4691 26.456 18.9604 26.0809 18.5853C25.7058 18.2103 25.1971 17.9996 24.6667 17.9996C24.1362 17.9996 23.6275 18.2103 23.2525 18.5853C22.8774 18.9604 22.6667 19.4691 22.6667 19.9996ZM26.6667 27.3329C26.6667 26.8025 26.456 26.2938 26.0809 25.9187C25.7058 25.5436 25.1971 25.3329 24.6667 25.3329C24.1362 25.3329 23.6275 25.5436 23.2525 25.9187C22.8774 26.2938 22.6667 26.8025 22.6667 27.3329C22.6667 27.8633 22.8774 28.372 23.2525 28.7471C23.6275 29.1222 24.1362 29.3329 24.6667 29.3329C25.1971 29.3329 25.7058 29.1222 26.0809 28.7471C26.456 28.372 26.6667 27.8633 26.6667 27.3329Z" fill="#F8F3F7"/>
</svg>
