<svg width="32" height="33" viewBox="0 0 32 33" fill="none" xmlns="http://www.w3.org/2000/svg">
<path d="M28.0344 17.7886L28.0182 17.8209C28.083 17.2868 28.1477 16.7365 28.1477 16.1861C28.1477 15.6358 28.0991 15.1179 28.0344 14.5837L28.0506 14.6161L32 11.5083L28.0668 4.67779L23.4213 6.55539L23.4375 6.57157C22.5959 5.92413 21.6732 5.3738 20.6697 4.95296H20.6859L19.9413 0H12.0587L11.3465 4.96915H11.3627C10.3591 5.38998 9.43652 5.94031 8.59484 6.58776L8.61103 6.57157L3.94942 4.67779L0 11.5083L3.94942 14.6161L3.9656 14.5837C3.90086 15.1179 3.8523 15.6358 3.8523 16.1861C3.8523 16.7365 3.90086 17.2868 3.98179 17.8209L3.9656 17.7886L0.566515 20.4593L0.0323726 20.8801L3.9656 27.6783L8.62721 25.8169L8.59484 25.7521C9.45271 26.4158 10.3753 26.9661 11.395 27.3869H11.3465L12.0749 32.3723H19.9251C19.9251 32.3723 19.9737 32.0809 20.0223 31.6925L20.6373 27.4031H20.6211C21.6247 26.9823 22.5635 26.432 23.4213 25.7683L23.389 25.8331L28.0506 27.6945L31.9838 20.8963C31.9838 20.8963 31.7572 20.7021 31.4497 20.4755L28.0344 17.7886V17.7886ZM15.9919 21.8513C12.868 21.8513 10.3268 19.3101 10.3268 16.1861C10.3268 13.0622 12.868 10.521 15.9919 10.521C19.1158 10.521 21.6571 13.0622 21.6571 16.1861C21.6571 19.3101 19.1158 21.8513 15.9919 21.8513Z" fill="#F8F3F7"/>
</svg>
