<svg width="32" height="32" viewBox="0 0 32 32" fill="none" xmlns="http://www.w3.org/2000/svg">
<path d="M15.9777 32C11.5444 32 7.77313 30.4454 4.66388 27.3361C1.55463 24.2269 0 20.4556 0 16.0223C0 11.5593 1.55463 7.77313 4.66388 4.66388C7.77313 1.55463 11.5444 0 15.9777 0C16.186 0 16.4165 0.00743806 16.6695 0.0223149C16.9224 0.0371917 17.2422 0.0595071 17.629 0.0892607C16.5876 1.04138 15.7768 2.2092 15.1967 3.59275C14.6165 4.97629 14.3264 6.44165 14.3264 7.98884C14.3264 10.6964 15.271 12.9874 17.1604 14.8619C19.0497 16.7364 21.3333 17.6736 24.0112 17.6736C25.5286 17.6736 26.9791 17.4059 28.3626 16.8703C29.7462 16.3347 30.9289 15.5909 31.9107 14.6388C31.9405 14.9661 31.9628 15.2338 31.9777 15.4421C31.9926 15.6504 32 15.8438 32 16.0223C32 20.4556 30.4454 24.2269 27.3361 27.3361C24.2269 30.4454 20.4407 32 15.9777 32Z" fill="#F8F3F7"/>
</svg>
